<svg width="128" height="128" viewBox="0 0 128 128" fill="none" xmlns="http://www.w3.org/2000/svg">
<g clip-path="url(#clip0_1410_7724)">
<rect width="128" height="128" fill="white"/>
<path d="M109.884 69.9163L109.859 89.0624L41.1636 49.401L41.2454 30.4289L55.0716 21.6297L123.096 60.9035L109.884 69.9163ZM38.1075 11.8354L48.5961 17.891L33.0937 44.7419L22.6051 38.6863L38.1075 11.8354Z" fill="#A128FF"/>
<path d="M5.54069 67.3912L21.0431 40.5403L98.2962 85.1425C100.841 86.612 102.951 88.2218 104.626 89.9718C106.345 91.71 107.404 93.5895 107.804 95.6103C108.231 97.6472 107.775 99.8264 106.435 102.148C105.546 103.686 104.532 104.797 103.391 105.481C102.251 106.165 101.029 106.504 99.7273 106.499C98.4254 106.493 97.0725 106.252 95.6685 105.777L94.8625 105.49L96.1702 106.459C97.8429 107.76 98.8351 108.948 99.1468 110.023C99.5026 111.086 99.3252 112.233 98.6147 113.464L95.2962 119.212L84.8076 113.156L87.3994 108.667C87.8839 107.828 88.0794 107.102 87.986 106.488C87.9367 105.863 87.4151 105.152 86.4211 104.354C85.4552 103.573 83.8534 102.536 81.6158 101.244L20.3893 65.895L16.0293 73.4468L5.54069 67.3912ZM24.4345 58.8886L91.199 97.4352C92.0381 97.9196 92.8181 98.1835 93.5389 98.2267C94.2878 98.2862 94.8883 97.9243 95.3404 97.1411C95.7603 96.4139 95.7492 95.7549 95.3072 95.1641C94.9093 94.5614 94.2908 94.0179 93.4517 93.5334L26.6872 54.9868L24.4345 58.8886Z" fill="#A128FF"/>
</g>
<defs>
<clipPath id="clip0_1410_7724">
<rect width="128" height="128" fill="white"/>
</clipPath>
</defs>
</svg>
